<svg width="20" height="20" viewBox="0 0 20 20" fill="none" xmlns="http://www.w3.org/2000/svg">
<path d="M10 0C4.5 0 0 4.5 0 10C0 15.5 4.5 20 10 20C15.5 20 20 15.5 20 10C20 4.5 15.5 0 10 0ZM10 15C9.5 15 9 14.5 9 14C9 13.5 9.5 13 10 13C10.5 13 11 13.5 11 14C11 14.5 10.5 15 10 15ZM11 11C11 11.5 10.5 12 10 12C9.5 12 9 11.5 9 11V10.3C9 9.9 9.3 9.5 9.7 9.4L10.4 9.2C10.8 9.1 11 8.7 11 8.3C11 7.8 10.6 7.4 10.1 7.4H10C9.7 7.4 9.4 7.6 9.2 7.8C8.9 8.3 8.3 8.4 7.8 8.1C7.3 7.7 7.2 7.1 7.5 6.6C8 5.8 9 5.3 9.9 5.3H10C11.6 5.3 12.9 6.6 12.9 8.2C13 9.5 12.2 10.6 11 11Z" fill="#41A8BB"/>
</svg>
